HIERARCHY
ROOT Hips
{
 OFFSET 0.000000 0.000000 0.000000
 CHANNELS 6 Xposition Yposition Zposition Yrotation Xrotation Zrotation
 JOINT Chest
 {
  OFFSET 0.000000 9.585900 0.002600
  CHANNELS 3 Yrotation Xrotation Zrotation
  JOINT Chest2
  {
   OFFSET 0.000000 9.601200 -0.005300
   CHANNELS 3 Yrotation Xrotation Zrotation
   JOINT Chest3
   {
    OFFSET 0.000000 9.561800 0.000000
    CHANNELS 3 Yrotation Xrotation Zrotation
    JOINT Chest4
    {
     OFFSET 0.000000 9.552100 0.000000
     CHANNELS 3 Yrotation Xrotation Zrotation
     JOINT Neck
     {
      OFFSET 0.000000 14.453000 0.000000
      CHANNELS 3 Yrotation Xrotation Zrotation
      JOINT Head
      {
       OFFSET 0.000000 8.936500 -0.011300
       CHANNELS 3 Yrotation Xrotation Zrotation
       End Site
       {
        OFFSET 0.000000 17.073600 -0.006000
       }
      }
     }
     JOINT RightCollar
     {
      OFFSET -2.921100 9.558500 0.000000
      CHANNELS 3 Yrotation Xrotation Zrotation
      JOINT RightShoulder
      {
       OFFSET -13.519700 0.000000 0.000000
       CHANNELS 3 Yrotation Xrotation Zrotation
       JOINT RightElbow
       {
        OFFSET 0.000000 -29.696600 0.000000
        CHANNELS 3 Yrotation Xrotation Zrotation
        JOINT RightWrist
        {
         OFFSET 0.000000 -24.004700 0.000000
         CHANNELS 3 Yrotation Xrotation Zrotation
         End Site
         {
          OFFSET 0.000000 -17.728500 0.000000
         }
        }
       }
      }
     }
     JOINT LeftCollar
     {
      OFFSET 2.921100 9.558500 0.000000
      CHANNELS 3 Yrotation Xrotation Zrotation
      JOINT LeftShoulder
      {
       OFFSET 13.519700 0.000000 0.000000
       CHANNELS 3 Yrotation Xrotation Zrotation
       JOINT LeftElbow
       {
        OFFSET 0.000000 -29.696600 0.000000
        CHANNELS 3 Yrotation Xrotation Zrotation
        JOINT LeftWrist
        {
         OFFSET 0.000000 -24.004700 0.000000
         CHANNELS 3 Yrotation Xrotation Zrotation
         End Site
         {
          OFFSET 0.000000 -17.728500 0.000000
         }
        }
       }
      }
     }
    }
   }
  }
 }
 JOINT RightHip
 {
  OFFSET -7.771700 -0.012900 -0.001300
  CHANNELS 3 Yrotation Xrotation Zrotation
  JOINT RightKnee
  {
   OFFSET 0.000000 -40.869800 0.001200
   CHANNELS 3 Yrotation Xrotation Zrotation
   JOINT RightAnkle
   {
    OFFSET 0.000000 -39.717900 0.002100
    CHANNELS 3 Yrotation Xrotation Zrotation
    JOINT RightToe
    {
     OFFSET 0.000000 -4.965400 11.033500
     CHANNELS 3 Yrotation Xrotation Zrotation
     End Site
     {
      OFFSET 0.000000 -1.423100 5.872300
     }
    }
   }
  }
 }
 JOINT LeftHip
 {
  OFFSET 7.771700 -0.012900 -0.001300
  CHANNELS 3 Yrotation Xrotation Zrotation
  JOINT LeftKnee
  {
   OFFSET 0.000000 -40.869800 0.001200
   CHANNELS 3 Yrotation Xrotation Zrotation
   JOINT LeftAnkle
   {
    OFFSET 0.000000 -39.717900 0.002100
    CHANNELS 3 Yrotation Xrotation Zrotation
    JOINT LeftToe
    {
     OFFSET 0.000000 -4.965400 11.033500
     CHANNELS 3 Yrotation Xrotation Zrotation
     End Site
     {
      OFFSET 0.000000 -1.423100 5.872300
     }
    }
   }
  }
 }
}
MOTION
Frames: 8
Frame Time: 0.008333
0.000000 85.388000 0.000000 0.000000 -5.767877 0.000000 0.000000 11.653817 0.000000 0.000000 -5.885947 0.000000 0.000000 -0.000000 0.000000 0.000000 -0.000000 0.000000 0.000000 12.528835 0.000000 0.000000 0.711642 0.000000 0.000000 -0.000000 0.000000 0.000000 0.000000 -90.000000 0.000000 -2.309062 0.000000 0.000000 2.309062 0.000000 0.000000 -0.000000 0.000000 0.000000 -0.000000 90.000000 0.000000 -2.309062 0.000000 0.000000 2.309062 0.000000 0.000000 8.520406 0.000000 0.000000 1.905762 0.000000 -0.000000 -4.658285 0.000000 0.000000 -0.000000 0.000000 0.000000 8.520406 0.000000 0.000000 1.905762 0.000000 -0.000000 -4.658285 0.000000 0.000000 -0.000000 0.000000
-66.238406 50.347838 -3.387121 165.389419 -8.299283 -0.546578 3.661843 6.260736 0.971322 0.147599 0.273515 0.006110 0.260539 0.475023 0.003250 3.305012 5.981764 0.192652 1.729903 17.961085 0.204829 3.115719 -2.428014 -0.191693 1.322282 7.515293 0.853193 -9.055633 -11.315404 -8.443205 -54.365550 -67.445095 81.088233 -0.553095 1.987461 -13.308743 -4.462942 4.055097 0.625012 19.548362 -3.092554 3.225937 54.991653 -66.548690 -82.378647 -0.336816 9.671327 6.052837 -3.245584 -72.017310 -3.507409 -124.006337 79.745065 -122.037703 -1.498537 -16.632348 0.397833 -0.269048 0.844009 -0.108324 -9.733261 -75.969533 26.367827 117.480111 78.616277 114.048495 -16.076603 -22.635148 0.155424 -0.353615 -1.020016 -0.165389
-66.238963 50.345616 -3.381311 165.405727 -8.275605 -0.550158 3.643723 6.242298 0.980241 0.148011 0.270657 0.001661 0.259826 0.474802 0.003507 3.288730 5.982950 0.202251 1.740307 17.962695 0.196852 3.124227 -2.421298 -0.191282 1.350038 7.522393 0.846623 -9.054099 -11.309605 -8.405152 -54.445932 -67.490813 81.108357 -0.549931 1.991508 -13.305200 -4.445238 4.051361 0.609070 19.554411 -3.118088 3.201221 55.082686 -66.565928 -82.439796 -0.335568 9.695714 6.056676 -3.271396 -72.040857 -3.486006 -123.947743 79.739893 -121.988628 -1.491691 -16.635835 0.391299 -0.272488 0.856382 -0.103467 -9.804954 -75.991689 26.422699 117.405223 78.610410 113.964964 -16.094947 -22.609715 0.153019 -0.383794 -1.025029 -0.165625
-66.237724 50.342998 -3.373875 165.447851 -8.247916 -0.569671 3.601471 6.216293 0.996603 0.148925 0.269732 -0.000541 0.259469 0.474761 0.003614 3.285404 5.983381 0.203240 1.742987 17.965582 0.201608 3.135145 -2.416206 -0.193273 1.361870 7.528279 0.849185 -9.051400 -11.301279 -8.368759 -54.575977 -67.540419 81.122027 -0.548904 2.015301 -13.252979 -4.437928 4.050349 0.602383 19.546817 -3.139917 3.191906 55.117713 -66.573603 -82.457861 -0.330109 9.691021 6.071004 -3.365075 -72.068423 -3.421687 -123.928144 79.734911 -121.980591 -1.481935 -16.638133 0.401532 -0.287739 0.859499 -0.108863 -9.961372 -76.020583 26.546460 117.266045 78.592360 113.822624 -16.164601 -22.570019 0.143829 -0.335219 -1.019026 -0.148161
-66.238347 50.340453 -3.368458 165.465089 -8.232225 -0.571836 3.581441 6.201905 0.999719 0.151164 0.270163 -0.002675 0.259115 0.474773 0.003660 3.282241 5.983892 0.204090 1.744413 17.972332 0.207220 3.146776 -2.417531 -0.202044 1.375706 7.533190 0.855356 -9.051953 -11.296322 -8.336775 -54.647058 -67.599401 81.110769 -0.559902 2.025502 -13.244571 -4.432343 4.047006 0.598925 19.535943 -3.167759 3.179913 55.113098 -66.575511 -82.436711 -0.324201 9.701611 6.078895 -3.394253 -72.086832 -3.401686 -123.888361 79.727595 -121.952668 -1.472786 -16.639481 0.409044 -0.295364 0.865429 -0.115271 -10.003373 -76.039173 26.573337 117.170570 78.577870 113.729874 -16.211587 -22.542608 0.138491 -0.328280 -1.017740 -0.141696
-66.239670 50.337832 -3.363081 165.459132 -8.218248 -0.567346 3.584344 6.188264 0.998881 0.147228 0.270691 0.001798 0.257800 0.474637 0.004716 3.278878 5.986016 0.197957 1.752342 17.975139 0.206307 3.168228 -2.406621 -0.210454 1.396496 7.538691 0.865671 -9.062115 -11.295783 -8.304251 -54.681726 -67.670039 81.083199 -0.548341 1.996033 -13.351393 -4.417346 4.040878 0.589470 19.522652 -3.194220 3.181391 55.141451 -66.577929 -82.455549 -0.308067 9.678201 6.118750 -3.395589 -72.105722 -3.385366 -123.828591 79.725430 -121.914549 -1.455952 -16.634720 0.424078 -0.313998 0.870896 -0.128590 -10.002516 -76.058754 26.576590 117.122518 78.568412 113.684268 -16.221815 -22.514208 0.131918 -0.333837 -1.022865 -0.139579
-66.241686 50.335756 -3.361142 165.466239 -8.224771 -0.556909 3.575470 6.195545 0.989208 0.146101 0.269499 0.005543 0.258212 0.475671 0.002092 3.261256 5.988265 0.205646 1.767437 17.978435 0.197483 3.182562 -2.398842 -0.216840 1.420425 7.543719 0.866998 -9.070074 -11.296769 -8.277477 -54.715092 -67.741399 81.056784 -0.545543 1.997328 -13.390861 -4.403063 4.030496 0.573887 19.519587 -3.210748 3.184812 55.209840 -66.585201 -82.519556 -0.281010 9.605737 6.158363 -3.386621 -72.104531 -3.395972 -123.819127 79.720607 -121.920767 -1.459501 -16.638398 0.430057 -0.314858 0.874692 -0.131476 -9.960551 -76.058770 26.522972 117.093219 78.562290 113.659244 -16.227853 -22.489927 0.131169 -0.303316 -1.029469 -0.137433
-66.243648 50.333813 -3.358593 165.475846 -8.228487 -0.549645 3.564655 6.199277 0.985040 0.144227 0.267539 0.008428 0.259479 0.477811 -0.002890 3.257385 5.988510 0.205305 1.773104 17.983080 0.199558 3.184748 -2.399354 -0.221049 1.431679 7.550978 0.878376 -9.077602 -11.295652 -8.236861 -54.723011 -67.829145 81.004365 -0.541688 1.996591 -13.430608 -4.404946 4.020809 0.569347 19.522798 -3.232753 3.188694 55.236500 -66.583749 -82.546307 -0.264432 9.609656 6.178413 -3.389401 -72.105571 -3.400328 -123.818104 79.717456 -121.934265 -1.453496 -16.643088 0.432904 -0.324252 0.879623 -0.131597 -9.935786 -76.059523 26.481568 117.051891 78.557740 113.623337 -16.225245 -22.475803 0.125348 -0.285403 -1.031599 -0.135856
